# xmcd
#
# Track frame offsets: 
#        150
#        18179
#        55318
#        77964
#        96467
#        114613
#        129640
#        150449
#        173788
#
# Disc length: 2643 seconds
#
# Revision: 0
# Processed by: cddbd v1.5.2PL0 Copyright (c) Steve Scherf et al.
# Submitted via: ExactAudioCopyFreeDBPlugin 1.0
#
DISCID=6f0a5109
DTITLE=John Lee Hooker and Santana - 1985 - The Stone Cd 1
DYEAR=1985
DGENRE=
TTITLE0=Shake Your Money Maker
TTITLE1=Thrill Is Gone
TTITLE2=Dust My Blues
TTITLE3=Unknown
TTITLE4=I Don't Know
TTITLE5=Going Down
TTITLE6=Boom Boom
TTITLE7=Crawling King Snake
TTITLE8=Rock Steady
EXTD=
EXTT0=
EXTT1=
EXTT2=
EXTT3=
EXTT4=
EXTT5=
EXTT6=
EXTT7=
EXTT8=
PLAYORDER=
